# xmcd
#
# Track frame offsets:
#	180
#	12140
#	23734
#	38239
#	47647
#	56792
#	65697
#	75851
#	88302
#	101720
#	114258
#	125127
#	136024
#	146738
#	158986
#	169930
#	180338
#	189059
#	202182
#	213945
#
# Disc length: 2981 seconds
#
# Revision: 1
# Processed by: cddbd v1.5.2PL0 Copyright (c) Steve Scherf et al.
# Submitted via: audiograbber 1.83.01
#
DISCID=120ba314
DTITLE=Charlie Rich - The Early Years - The Memphis Sound
DYEAR=1900
DGENRE=Oldies
TTITLE0=Easy Money
TTITLE1=Graveyardville
TTITLE2=I've Lost My Heart To You
TTITLE3=Philadelphia Baby
TTITLE4=Right Behind You Baby
TTITLE5=That's Right
TTITLE6=Sad News
TTITLE7=Big Man
TTITLE8=Juanita
TTITLE9=My Heart Cries For You
TTITLE10=C. C. Rider
TTITLE11=Finally Found Out
TTITLE12=I Need Your Love
TTITLE13=It's Too Late
TTITLE14=Little Bit Sweet
TTITLE15=My Baby Done Left Me
TTITLE16=Rebound
TTITLE17=Stay
TTITLE18=The Wedding's Over
TTITLE19=Whirlwind
EXTD=
EXTT0=
EXTT1=
EXTT2=
EXTT3=
EXTT4=
EXTT5=
EXTT6=
EXTT7=
EXTT8=
EXTT9=
EXTT10=
EXTT11=
EXTT12=
EXTT13=
EXTT14=
EXTT15=
EXTT16=
EXTT17=
EXTT18=
EXTT19=
PLAYORDER=
